<svg width="15" height="15" viewBox="0 0 15 15" fill="none" xmlns="http://www.w3.org/2000/svg">
<g id="IOCN&#233;&#155;&#134;&#229;&#144;&#136;">
<g id="&#231;&#188;&#150;&#231;&#187;&#132; 5">
<path id="&#232;&#183;&#175;&#229;&#190;&#132;" d="M0.322273 3.16632C0.322273 2.57402 0.835957 2.08942 1.46379 2.08942H5.03264C5.66048 2.08942 6.17416 2.57402 6.17416 3.16632V3.43555C6.17416 3.7317 6.43154 3.974 6.74492 3.974H12.1951C12.823 3.974 13.3367 4.45861 13.3367 5.0509V5.32013H3.57667C2.94884 5.32013 2.349 5.80474 2.23485 6.37011L0.979178 12.8585C0.607646 12.8585 0.322266 12.3739 0.322266 11.7816V3.16634L0.322273 3.16632Z" fill="#298DF8"/>
<path id="&#232;&#183;&#175;&#229;&#190;&#132;_2" d="M2.95847 6.63934C3.05001 6.20857 3.54108 5.85858 4.0623 5.85858H13.5692C14.0915 5.85858 14.3984 6.20858 14.3058 6.63934L13.1104 12.0508C13.0178 12.4815 12.5268 12.8315 12.0055 12.8315H1.57788L2.95847 6.63934V6.63934Z" fill="#76B8FF"/>
</g>
</g>
</svg>
