<svg width="14" height="14" viewBox="0 0 14 14" fill="none" xmlns="http://www.w3.org/2000/svg">
<g id="file-paste">
<g id="file-paste_2">
<path d="M9.72727 9.99995H4.27273V10.8571H9.72727V9.99995Z" fill="#333333"/>
<path d="M2 1.79021C2 1.28909 2.47278 1 2.90486 1L7.72082 1.00006C7.96192 1.00006 8.19315 1.09037 8.36363 1.25111L11.7337 4.42862C11.9042 4.58936 12 4.80738 12 5.0347V12.2098C12 12.7109 11.5272 13 11.0951 13L2.90486 12.9999C2.47277 12.9999 2 12.7109 2 12.2097V1.79021ZM2.90909 1.85714V12.1428L11.0909 12.1429V5.29669H7.45459V1.85719L2.90909 1.85714ZM8.36368 4.43955H10.4597L8.36368 2.46333V4.43955Z" fill="#333333"/>
</g>
</g>
</svg>
